<?xml version="1.0" standalone="no"?>
<!DOCTYPE svg PUBLIC "-//W3C//DTD SVG 20010904//EN"
 "http://www.w3.org/TR/2001/REC-SVG-20010904/DTD/svg10.dtd">
<svg version="1.0" xmlns="http://www.w3.org/2000/svg"
 width="700.000000pt" height="700.000000pt" viewBox="0 0 700.000000 700.000000"
 preserveAspectRatio="xMidYMid meet">
<metadata>
Created by potrace 1.14, written by Peter Selinger 2001-2017
</metadata>
<g transform="translate(0.000000,700.000000) scale(0.100000,-0.100000)"
fill="#000000" stroke="none">
<path d="M3360 6774 c-606 -44 -1133 -217 -1503 -496 -113 -85 -320 -294 -404
-408 -184 -249 -285 -497 -286 -700 -1 -154 47 -253 153 -318 51 -31 60 -33
126 -29 l70 4 22 -111 c12 -61 35 -158 51 -215 17 -58 29 -105 28 -106 -1 -1
-65 -18 -142 -39 -405 -109 -750 -295 -988 -531 -141 -140 -224 -268 -251
-385 -37 -163 -29 -297 24 -406 27 -56 89 -126 134 -151 14 -8 20 -37 32 -159
32 -325 87 -581 154 -719 31 -66 54 -96 122 -161 420 -402 1779 -1155 2633
-1459 315 -112 564 -167 755 -168 160 -1 279 33 491 138 415 207 969 667 1100
915 24 44 24 51 29 390 l5 345 28 56 c88 180 98 439 26 651 -31 90 -97 214
-146 275 -24 29 -43 56 -43 60 0 5 10 14 23 22 41 26 280 208 411 314 l130
104 60 -19 c190 -61 392 43 495 254 65 131 76 189 75 368 -4 522 -229 1114
-597 1570 -93 116 -269 290 -392 390 -231 188 -615 404 -900 505 -274 98 -571
168 -855 200 -138 16 -550 27 -670 19z m-647 -673 c50 -50 45 -91 -24 -182
-70 -93 -79 -109 -79 -153 0 -27 9 -46 35 -75 88 -97 30 -178 -157 -217 -148
-32 -290 4 -345 87 -21 32 -26 51 -26 99 1 92 47 174 158 285 178 178 354 240
438 156z m-1034 -226 c28 -57 -14 -188 -94 -293 -72 -94 -142 -125 -185 -82
-20 20 -22 30 -18 91 15 202 235 412 297 284z m2141 -54 c65 -46 59 -112 -19
-213 -78 -102 -82 -118 -59 -217 13 -59 4 -90 -37 -117 -55 -36 -192 -13 -275
47 -83 60 -104 174 -51 284 80 168 334 293 441 216z m-930 -626 c368 -62 662
-164 1125 -390 536 -261 644 -325 1282 -767 241 -167 473 -325 515 -353 l76
-49 -92 -65 c-116 -83 -357 -239 -417 -270 l-46 -24 -130 104 c-705 564 -1612
959 -2468 1075 -165 22 -567 23 -728 2 -60 -8 -110 -12 -112 -8 -15 24 -115
481 -115 527 0 26 39 54 160 114 99 50 211 86 340 109 88 17 138 19 310 16
125 -3 242 -11 300 -21z m-1906 -1237 c7 -12 7 -28 -2 -58 -7 -22 -17 -58 -24
-80 -25 -84 7 -113 190 -167 220 -66 302 -121 302 -206 0 -54 -19 -81 -79
-111 -76 -39 -189 -58 -341 -58 -142 0 -233 15 -333 52 -191 71 -257 208 -176
360 71 134 300 295 407 288 29 -2 49 -9 56 -20z m38 -1302 c353 -117 619 -219
878 -339 242 -112 724 -356 1040 -527 812 -439 1088 -538 1422 -509 255 22
712 191 988 367 65 41 97 56 102 49 9 -15 10 -232 2 -278 -14 -70 -314 -338
-607 -542 -264 -184 -461 -294 -606 -338 -61 -18 -86 -20 -150 -15 -472 42
-1543 449 -2241 851 -486 280 -988 652 -1049 777 -29 61 -57 180 -80 343 -29
206 -34 265 -24 265 5 0 151 -47 325 -104z"/>
<path d="M2183 4939 c-83 -26 -133 -73 -133 -123 0 -21 5 -46 11 -58 46 -87
353 -49 412 52 33 56 17 102 -46 131 -56 25 -162 24 -244 -2z"/>
<path d="M4240 4325 c-8 -2 -31 -6 -51 -10 -87 -14 -120 -108 -58 -166 38 -36
107 -57 224 -69 167 -17 235 14 235 105 0 72 -80 117 -241 135 -46 5 -86 9
-89 9 -3 -1 -12 -3 -20 -4z"/>
<path d="M4967 3902 c-55 -57 -24 -140 89 -240 104 -93 190 -117 239 -67 14
13 25 36 25 51 0 43 -59 141 -118 195 -102 93 -184 115 -235 61z"/>
<path d="M954 2370 c-36 -14 -64 -59 -64 -102 0 -72 46 -136 183 -253 112 -95
163 -125 212 -125 44 0 62 10 89 50 23 34 20 68 -9 127 -39 77 -231 253 -320
294 -44 20 -60 22 -91 9z"/>
<path d="M1459 2351 c-25 -16 -42 -67 -35 -105 13 -69 165 -170 276 -183 47
-5 51 -4 85 30 19 19 35 45 35 56 0 58 -67 126 -169 175 -69 32 -163 45 -192
27z"/>
<path d="M1670 1849 c-69 -7 -95 -21 -115 -59 -21 -40 -19 -79 5 -118 37 -60
156 -94 335 -95 127 -1 187 22 211 80 35 82 -20 149 -146 177 -76 17 -212 24
-290 15z"/>
</g>
</svg>
